<?xml version="1.0" encoding="UTF-8" standalone="no"?>
<!-- Created with Inkscape (http://www.inkscape.org/) -->

<svg
   width="92.425369mm"
   height="106.72354mm"
   viewBox="0 0 92.425369 106.72354"
   version="1.1"
   id="svg5"
   inkscape:version="1.1.1 (3bf5ae0d25, 2021-09-20)"
   sodipodi:docname="logoblack.svg"
   xmlns:inkscape="http://www.inkscape.org/namespaces/inkscape"
   xmlns:sodipodi="http://sodipodi.sourceforge.net/DTD/sodipodi-0.dtd"
   xmlns="http://www.w3.org/2000/svg"
   xmlns:svg="http://www.w3.org/2000/svg">
  <sodipodi:namedview
     id="namedview7"
     pagecolor="#505050"
     bordercolor="#eeeeee"
     borderopacity="1"
     inkscape:pageshadow="0"
     inkscape:pageopacity="0"
     inkscape:pagecheckerboard="0"
     inkscape:document-units="mm"
     showgrid="false"
     inkscape:zoom="0.51150168"
     inkscape:cx="-395.89313"
     inkscape:cy="425.21854"
     inkscape:window-width="1920"
     inkscape:window-height="1001"
     inkscape:window-x="-9"
     inkscape:window-y="-9"
     inkscape:window-maximized="1"
     inkscape:current-layer="layer1"
     fit-margin-top="0"
     fit-margin-left="0"
     fit-margin-right="0"
     fit-margin-bottom="0" />
  <defs
     id="defs2">
    <rect
       x="291.68924"
       y="411.26797"
       width="253.67287"
       height="96.077728"
       id="rect17180" />
    <rect
       x="281.32114"
       y="646.96948"
       width="267.49698"
       height="44.237228"
       id="rect13090" />
  </defs>
  <g
     inkscape:label="Warstwa 1"
     inkscape:groupmode="layer"
     id="layer1">
    <path
       id="path69835"
       style="opacity:1;fill:#000000;fill-rule:evenodd;stroke:none;stroke-width:0.218182;stroke-opacity:1"
       d="m 46.212464,0 -6.250155,3.6085309 c 0.275723,0.5879043 0.554238,1.1744676 0.831392,1.7616519 0.357562,0.7865468 0.703396,1.5785698 1.073015,2.3595225 2.024232,4.2769247 1.54132,3.1473017 3.343048,6.8322607 2.615873,5.350079 5.174486,10.721274 7.695613,16.116515 0.191575,0.417045 0.384815,0.833352 0.574861,1.251138 0.23249,0.07372 0.46554,0.145687 0.698013,0.219461 10.035787,3.184794 3.85142,1.301021 15.673757,4.993903 1.627457,0.508361 3.262206,0.992896 4.893335,1.48935 2.690834,0.784703 5.375299,1.59083 8.07232,2.353984 2.114745,0.598389 4.238142,1.166222 6.362229,1.730544 1.417603,0.376622 2.081119,0.544053 3.245462,0.851847 V 26.680886 Z M 38.098384,4.6845278 12.934973,19.212828 c 3.144994,0.974553 6.293401,1.938354 9.430419,2.938643 9.454427,2.971959 18.914417,5.926879 28.364129,8.913941 C 48.293878,25.85927 45.824687,20.674086 43.299816,15.510121 41.464634,11.756736 41.995454,12.987093 39.924808,8.6122357 39.559455,7.8403191 39.218366,7.0574652 38.865005,6.2799861 38.607109,5.7326857 38.351886,5.2156061 38.098384,4.6845278 Z M 10.422041,20.663826 0,26.680886 v 4.114781 c 0.57835811,0.48986 1.1375209,1.002227 1.7062539,1.503413 2.6733039,2.597865 5.5727404,4.955754 8.4324061,7.342346 0.815464,0.680572 1.662574,1.324389 2.449863,2.037363 1.21054,1.096274 2.359946,2.258261 3.539923,3.387365 3.153426,3.235945 2.180286,2.273491 6.194333,6.173879 0.925496,0.899291 1.846106,1.804353 2.792053,2.682109 5.130662,4.760819 3.373356,3.064567 5.232965,4.693049 2.939084,-0.349423 5.878594,-0.694782 8.816355,-1.055542 12.283547,-1.508425 1.436598,-0.289641 17.172483,-2.130685 3.400188,-0.39781 4.612592,-0.530777 5.566206,-0.632814 C 61.522702,53.935994 61.138145,53.07792 60.747158,52.222707 59.751491,50.044863 58.75675,47.86662 57.730957,45.702804 56.103239,42.269277 54.291712,38.924296 52.749837,35.449088 52.472419,34.862496 52.206716,34.270454 51.937193,33.680192 41.874075,30.492788 31.796207,27.351742 21.726187,24.186278 17.96588,22.987223 14.193569,21.826922 10.422041,20.663826 Z M 0,33.635873 v 28.044099 c 1.3984672,-0.131075 0.1139824,-0.01715 2.5585285,-0.244176 10.0799455,-0.936099 6.1012219,-0.431083 18.2356955,-1.704124 2.228383,-0.233783 4.451943,-0.512336 6.677147,-0.775143 -0.322417,-0.261038 -0.781165,-0.662958 -3.834384,-3.496457 -0.95097,-0.882534 -1.876147,-1.792401 -2.806541,-2.696598 -4.032931,-3.919379 -3.051745,-2.947395 -6.177287,-6.157258 -1.142735,-1.095858 -2.254823,-2.224751 -3.428275,-3.28765 C 10.435994,42.603999 9.5870914,41.958972 8.7699065,41.276943 5.8953204,38.877786 2.9811219,36.506973 0.29318249,33.896243 0.19548603,33.809402 0.0968871,33.723647 0,33.635873 Z m 54.684927,0.916621 c 0.0011,0.0022 0.002,0.0043 0.003,0.0064 1.53459,3.457738 3.336798,6.786127 4.956404,10.202581 1.033032,2.179113 2.035903,4.372354 3.038787,6.565499 0.494082,1.080541 0.972377,2.168211 1.46037,3.251427 -0.126113,0.03654 -0.01588,0.03874 9.499028,-1.116906 2.035661,-0.247244 4.066716,-0.529878 6.100158,-0.794747 4.227439,-0.556238 8.455481,-1.11048 12.682698,-1.670883 V 45.780786 C 88.611074,44.776105 84.619469,43.712665 82.25815,43.04456 79.54867,42.277946 76.851609,41.468134 74.14833,40.679924 72.509225,40.181091 70.866122,39.69413 69.230706,39.183328 58.366693,35.790096 61.710535,36.792467 54.684933,34.552494 Z m 37.740427,18.594503 c -4.134437,0.548587 -8.269801,1.090205 -12.40443,1.634238 -2.034359,0.264989 -4.066563,0.547382 -6.10314,0.794746 -8.839219,1.073619 -8.746371,1.046787 -8.818912,1.037217 1.000182,2.046535 2.03825,4.07449 3.057535,6.111662 3.185573,6.07477 2.50384,4.753401 6.101008,11.749459 2.559964,-1.084192 5.129152,-2.146135 7.724592,-3.138928 1.550288,-0.593 3.126684,-1.115643 4.693903,-1.662362 3.587484,-1.251487 4.727171,-1.648677 5.749444,-1.985372 z m -29.597368,3.690351 c -0.843418,0.08726 -2.432737,0.264134 -6.257826,0.711647 -15.681632,1.834678 -4.888589,0.622518 -17.135409,2.126427 -2.321724,0.285108 -4.64489,0.558599 -6.967773,0.834377 1.238999,1.124019 2.467568,2.259324 3.701428,3.38907 0.942339,0.880215 1.895195,1.749412 2.826997,2.640774 10.077661,9.640288 -0.547391,-0.456341 6.886805,6.747031 3.162619,3.064425 6.404289,6.049017 9.600023,9.078856 1.717132,-0.676666 3.437168,-1.345846 5.145607,-2.044606 1.431568,-0.585518 2.844347,-1.215808 4.266488,-1.823869 2.465451,-1.056434 4.927113,-2.127548 7.394336,-3.185376 -3.447857,-6.70579 -2.884414,-5.614717 -6.039647,-11.632696 -1.140364,-2.280534 -2.314026,-4.544751 -3.421029,-6.841635 z m -33.178202,4.009526 c -0.37091,0.04421 -0.741759,0.08898 -1.112645,0.133381 -2.498931,0.290071 -4.995057,0.607664 -7.497034,0.870172 C 8.8511694,63.129292 12.86435,62.620733 2.7447506,63.560516 0.12245489,63.804043 1.4284048,63.688552 0,63.82259 v 16.220067 l 24.225056,13.986252 c 0.960665,-0.355652 1.811843,-0.666431 3.874015,-1.422018 8.411576,-3.084369 16.8433,-6.125855 25.194944,-9.372039 -2.97357,-2.808258 -5.976333,-5.587746 -8.913514,-8.433685 -7.421618,-7.191065 3.211052,2.913325 -6.840784,-6.703141 C 36.613053,67.211498 35.665223,66.347167 34.728063,65.471741 33.336978,64.19784 31.956449,62.912534 30.5549,61.650142 30.063874,61.207871 29.977935,61.138854 29.649784,60.846874 Z m 62.77557,9.082264 c -0.902886,0.304482 -1.989098,0.690333 -5.054413,1.759948 -1.561586,0.5449 -3.132136,1.065819 -4.676859,1.656822 -2.506875,0.959119 -4.988762,1.984606 -7.46209,3.031116 0.53831,1.041421 1.081353,2.08046 1.601851,3.130831 1.225702,2.473485 2.412053,4.966728 3.591058,7.463369 l 12.000453,-6.928567 z m -19.16169,7.283539 c -2.512646,1.076928 -5.019046,2.168922 -7.529421,3.244611 -1.422654,0.608279 -2.836115,1.238968 -4.268192,1.82472 -1.424203,0.582532 -2.859201,1.137548 -4.289499,1.704549 0.282362,0.270339 0.567697,0.537619 0.846735,0.811366 1.14137,1.119736 2.269022,2.253038 3.396315,3.38694 0.73277,0.737059 1.440682,1.49926 2.183953,2.225715 1.353092,1.32246 2.733028,2.613301 4.126288,3.889781 l 10.843066,-6.260384 c -1.193726,-2.529366 -2.395924,-5.054909 -3.63751,-7.560528 -0.543104,-1.096041 -1.109817,-2.1802 -1.671735,-3.26677 z m -18.266379,7.639792 c -8.66921,3.388487 -17.425973,6.55278 -26.163981,9.75684 -1.173668,0.43004 -1.493462,0.549405 -2.202703,0.808383 L 46.212464,106.72354 65.802425,95.413431 c -1.253364,-1.154994 -2.500876,-2.316319 -3.721458,-3.509242 -0.737807,-0.721086 -1.440027,-1.477413 -2.167333,-2.209096 -1.117151,-1.123857 -2.23491,-2.247344 -3.366061,-3.35711 -0.510904,-0.501244 -1.031581,-0.992359 -1.550288,-1.485514 z" />
  </g>
</svg>
